<svg width="223" height="97" viewBox="0 0 223 97" fill="none" xmlns="http://www.w3.org/2000/svg">
<path d="M223 78.054H0V96.1727H223V78.054Z" fill="#87DE87"/>
<path d="M223 0H0V78.054H223V0Z" fill="white"/>
<path d="M11.7345 52.4675V68.0506H18.911C21.5669 68.0506 23.6201 67.3747 25.0704 66.0229C26.5208 64.671 27.246 62.7451 27.246 60.2451C27.246 57.7637 26.5208 55.8471 25.0704 54.4952C23.6201 53.1434 21.5669 52.4675 18.911 52.4675H11.7345ZM6.0271 47.8564H18.911C23.6389 47.8564 27.2083 48.912 29.6194 51.0231C32.0492 53.1156 33.2642 56.1897 33.2642 60.2451C33.2642 64.3377 32.0492 67.4303 29.6194 69.5228C27.2083 71.6154 23.6389 72.6616 18.911 72.6616H11.7345V89.328H6.0271V47.8564Z" fill="#333333"/>
<path d="M52.4769 73.6892C48.2764 73.6892 45.3662 74.1614 43.7463 75.1058C42.1264 76.0503 41.3165 77.6613 41.3165 79.9391C41.3165 81.7539 41.9192 83.1983 43.1247 84.2724C44.3491 85.3279 46.0067 85.8557 48.0975 85.8557C50.9794 85.8557 53.2868 84.8557 55.0198 82.8557C56.7715 80.8372 57.6474 78.1614 57.6474 74.8281V73.6892H52.4769ZM62.8462 71.5781V89.3278H57.6474V84.6057C56.4607 86.4946 54.9821 87.8927 53.2115 88.8C51.4409 89.6889 49.2747 90.1333 46.713 90.1333C43.4732 90.1333 40.8927 89.2445 38.9714 87.4668C37.0689 85.6705 36.1177 83.2724 36.1177 80.2724C36.1177 76.7725 37.3044 74.1337 39.6777 72.3559C42.0699 70.5782 45.6299 69.6892 50.3578 69.6892H57.6474V69.1893C57.6474 66.8375 56.8563 65.0227 55.2741 63.7449C53.7107 62.4487 51.5068 61.8006 48.6626 61.8006C46.8543 61.8006 45.0931 62.0135 43.379 62.4394C41.6649 62.8653 40.0168 63.5042 38.4345 64.3561V59.6339C40.337 58.9117 42.1829 58.3747 43.9724 58.0228C45.7618 57.6525 47.5041 57.4673 49.1994 57.4673C53.7766 57.4673 57.1953 58.6339 59.4557 60.9672C61.716 63.3005 62.8462 66.8375 62.8462 71.5782V71.5781Z" fill="#333333"/>
<path d="M99.8594 70.5504V89.3278H94.6606V70.717C94.6606 67.7726 94.0767 65.569 92.9089 64.1061C91.741 62.6431 89.9892 61.9116 87.6536 61.9116C84.847 61.9116 82.6337 62.7912 81.0138 64.5504C79.3939 66.3097 78.584 68.7078 78.584 71.7448V89.3278H73.3569V58.2172H78.584V63.0505C79.8271 61.1801 81.2869 59.782 82.9634 58.8561C84.6586 57.9302 86.6082 57.4673 88.812 57.4673C92.4474 57.4673 95.1974 58.5783 97.0622 60.8005C98.927 63.0042 99.8594 66.2541 99.8594 70.5504Z" fill="#333333"/>
<path d="M116.162 52.4673V84.7167H123.056C128.876 84.7167 133.133 83.4204 135.827 80.8279C138.539 78.2353 139.895 74.1428 139.895 68.5503C139.895 62.9948 138.539 58.9301 135.827 56.3561C133.133 53.7636 128.876 52.4673 123.056 52.4673H116.162ZM110.455 47.8562H122.18C130.355 47.8562 136.354 49.5321 140.178 52.8839C144.002 56.2172 145.914 61.4393 145.914 68.5503C145.914 75.6984 143.992 80.9483 140.15 84.3001C136.307 87.6519 130.317 89.3278 122.18 89.3278H110.455V47.8562Z" fill="#333333"/>
<path d="M167.048 61.8005C164.26 61.8005 162.056 62.8745 160.436 65.0226C158.816 67.1522 158.006 70.0782 158.006 73.8003C158.006 77.5225 158.807 80.4576 160.408 82.6057C162.028 84.7353 164.241 85.8002 167.048 85.8002C169.817 85.8002 172.011 84.7261 173.631 82.5779C175.251 80.4298 176.061 77.504 176.061 73.8003C176.061 70.1152 175.251 67.1986 173.631 65.0504C172.011 62.8838 169.817 61.8005 167.048 61.8005ZM167.048 57.4673C171.568 57.4673 175.119 58.9116 177.7 61.8005C180.28 64.6893 181.571 68.6893 181.571 73.8003C181.571 78.8928 180.28 82.8928 177.7 85.8002C175.119 88.689 171.568 90.1333 167.048 90.1333C162.508 90.1333 158.948 88.689 156.368 85.8002C153.806 82.8928 152.525 78.8928 152.525 73.8003C152.525 68.6893 153.806 64.6893 156.368 61.8005C158.948 58.9116 162.508 57.4673 167.048 57.4673Z" fill="#333333"/>
<path d="M202.45 61.8005C199.663 61.8005 197.459 62.8745 195.839 65.0226C194.219 67.1522 193.409 70.0782 193.409 73.8003C193.409 77.5225 194.21 80.4576 195.811 82.6057C197.431 84.7353 199.644 85.8002 202.45 85.8002C205.219 85.8002 207.414 84.7261 209.034 82.5779C210.654 80.4298 211.464 77.504 211.464 73.8003C211.464 70.1152 210.654 67.1986 209.034 65.0504C207.414 62.8838 205.219 61.8005 202.45 61.8005ZM202.45 57.4673C206.971 57.4673 210.522 58.9116 213.102 61.8005C215.683 64.6893 216.973 68.6893 216.973 73.8003C216.973 78.8928 215.683 82.8928 213.102 85.8002C210.522 88.689 206.971 90.1333 202.45 90.1333C197.911 90.1333 194.351 88.689 191.77 85.8002C189.209 82.8928 187.928 78.8928 187.928 73.8003C187.928 68.6893 189.209 64.6893 191.77 61.8005C194.351 58.9116 197.911 57.4673 202.45 57.4673Z" fill="#333333"/>
</svg>
