<svg width="120" height="52" viewBox="0 0 120 52" fill="none" xmlns="http://www.w3.org/2000/svg">
<g clip-path="url(#clip0_2014_104)">
<path d="M120 42.25H0V52H120V42.25Z" fill="#87DE87"/>
<path d="M120 0.247803H0V42.25H120V0.247803Z" fill="white"/>
<path d="M6.31439 28.4813V36.8668H10.1762C11.6054 36.8668 12.7102 36.5031 13.4907 35.7757C14.2712 35.0482 14.6614 34.0118 14.6614 32.6666C14.6614 31.3313 14.2712 30.2999 13.4907 29.5724C12.7102 28.845 11.6054 28.4813 10.1762 28.4813H6.31439ZM3.24316 26H10.1762C12.7204 26 14.6411 26.568 15.9386 27.704C17.2461 28.8301 17.8999 30.4842 17.8999 32.6666C17.8999 34.8688 17.2461 36.533 15.9386 37.659C14.6411 38.7851 12.7204 39.3481 10.1762 39.3481H6.31439V48.3165H3.24316V26Z" fill="#333333"/>
<path d="M28.2387 39.9011C25.9784 39.9011 24.4124 40.1552 23.5407 40.6634C22.669 41.1717 22.2331 42.0386 22.2331 43.2643C22.2331 44.2409 22.5575 45.0181 23.2062 45.5961C23.865 46.1641 24.757 46.4481 25.8821 46.4481C27.4329 46.4481 28.6746 45.91 29.6071 44.8338C30.5497 43.7476 31.021 42.3077 31.021 40.514V39.9011H28.2387ZM33.8186 38.7651V48.3165H31.021V45.7755C30.3825 46.7919 29.5868 47.5442 28.634 48.0325C27.6812 48.5108 26.5156 48.75 25.1371 48.75C23.3937 48.75 22.005 48.2717 20.9712 47.3151C19.9474 46.3485 19.4355 45.058 19.4355 43.4437C19.4355 41.5603 20.0741 40.1403 21.3513 39.1837C22.6385 38.227 24.5543 37.7487 27.0984 37.7487H31.021V37.4797C31.021 36.2141 30.5953 35.2375 29.7439 34.5499C28.9026 33.8524 27.7167 33.5037 26.1862 33.5037C25.2131 33.5037 24.2654 33.6182 23.343 33.8474C22.4206 34.0766 21.5337 34.4204 20.6823 34.8788V32.3377C21.706 31.9491 22.6994 31.6601 23.6623 31.4708C24.6252 31.2715 25.5628 31.1718 26.475 31.1718C28.9381 31.1718 30.7778 31.7996 31.9941 33.0552C33.2104 34.3108 33.8186 36.2141 33.8186 38.7651V38.7651Z" fill="#333333"/>
<path d="M53.7358 38.2121V48.3165H50.9382V38.3017C50.9382 36.7173 50.624 35.5315 49.9956 34.7443C49.3672 33.9571 48.4245 33.5634 47.1676 33.5634C45.6574 33.5634 44.4664 34.0367 43.5947 34.9834C42.723 35.9301 42.2871 37.2206 42.2871 38.8548V48.3165H39.4744V31.5754H42.2871V34.1762C42.9561 33.1698 43.7416 32.4174 44.6437 31.9192C45.556 31.421 46.6051 31.1718 47.791 31.1718C49.7473 31.1718 51.2271 31.7697 52.2306 32.9655C53.234 34.1513 53.7358 35.9002 53.7358 38.2121Z" fill="#333333"/>
<path d="M62.5085 28.4813V45.8352H66.2183C69.3503 45.8352 71.641 45.1377 73.0905 43.7426C74.5501 42.3475 75.2799 40.1453 75.2799 37.1358C75.2799 34.1464 74.5501 31.9591 73.0905 30.5739C71.641 29.1789 69.3503 28.4813 66.2183 28.4813H62.5085ZM59.4373 26H65.7469C70.146 26 73.3743 26.9019 75.4319 28.7055C77.4895 30.4992 78.5184 33.3093 78.5184 37.1358C78.5184 40.9823 77.4845 43.8074 75.4167 45.6111C73.349 47.4147 70.1257 48.3165 65.7469 48.3165H59.4373V26Z" fill="#333333"/>
<path d="M89.8911 33.5036C88.3909 33.5036 87.205 34.0816 86.3333 35.2375C85.4616 36.3835 85.0258 37.958 85.0258 39.9609C85.0258 41.9639 85.4566 43.5433 86.3181 44.6993C87.1898 45.8452 88.3808 46.4182 89.8911 46.4182C91.3811 46.4182 92.5619 45.8402 93.4336 44.6843C94.3053 43.5284 94.7412 41.9539 94.7412 39.9609C94.7412 37.9779 94.3053 36.4084 93.4336 35.2525C92.5619 34.0866 91.3811 33.5036 89.8911 33.5036ZM89.8911 31.1718C92.3237 31.1718 94.2344 31.9491 95.623 33.5036C97.0116 35.0581 97.706 37.2106 97.706 39.9609C97.706 42.7013 97.0116 44.8537 95.623 46.4182C94.2344 47.9728 92.3237 48.75 89.8911 48.75C87.4483 48.75 85.5326 47.9728 84.1439 46.4182C82.7654 44.8537 82.0762 42.7013 82.0762 39.9609C82.0762 37.2106 82.7654 35.0581 84.1439 33.5036C85.5326 31.9491 87.4483 31.1718 89.8911 31.1718Z" fill="#333333"/>
<path d="M108.942 33.5036C107.442 33.5036 106.256 34.0816 105.384 35.2375C104.512 36.3835 104.077 37.958 104.077 39.9609C104.077 41.9639 104.507 43.5433 105.369 44.6993C106.241 45.8452 107.432 46.4182 108.942 46.4182C110.432 46.4182 111.613 45.8402 112.484 44.6843C113.356 43.5284 113.792 41.9539 113.792 39.9609C113.792 37.9779 113.356 36.4084 112.484 35.2525C111.613 34.0866 110.432 33.5036 108.942 33.5036ZM108.942 31.1718C111.374 31.1718 113.285 31.9491 114.674 33.5036C116.062 35.0581 116.757 37.2106 116.757 39.9609C116.757 42.7013 116.062 44.8537 114.674 46.4182C113.285 47.9728 111.374 48.75 108.942 48.75C106.499 48.75 104.583 47.9728 103.195 46.4182C101.816 44.8537 101.127 42.7013 101.127 39.9609C101.127 37.2106 101.816 35.0581 103.195 33.5036C104.583 31.9491 106.499 31.1718 108.942 31.1718Z" fill="#333333"/>
</g>
<defs>
<clipPath id="clip0_2014_104">
<rect width="120" height="52" fill="white"/>
</clipPath>
</defs>
</svg>
